<svg width="363" height="363" viewBox="0 0 363 363" fill="none" xmlns="http://www.w3.org/2000/svg">
<path d="M69.8902 112.273C70.2336 105.341 71.0501 98.0027 75.0711 92.1932C79.0628 86.4258 85.9956 84.2787 92.5607 83.1213C95.0883 82.6761 97.8696 82.2523 100.697 82.0529C104.143 82.0053 107.623 82.0011 111.244 82.792C112.371 83.0896 113.463 83.4664 114.496 83.9579C117.018 85.1592 119.83 87.4508 121.756 89.5107C122.048 89.8229 122.299 90.1766 122.535 90.5449C123.06 91.4822 123.486 92.4133 123.827 93.2701C124.114 94.0482 124.371 94.8349 124.629 95.5886C124.782 96.1136 124.885 96.5258 124.946 96.7923C123.583 96.8551 122.219 96.9393 120.856 97.0124C114.025 97.3814 107.48 98.5131 100.855 100.259C99.4319 100.633 98.0056 101.032 96.5909 101.468L95.7487 101.597L94.8962 102.023C93.859 102.374 92.829 102.745 91.8216 103.16C90.9582 103.518 88.6775 104.218 88.2385 105.322C87.6933 105.369 86.8835 105.662 86.9457 105.915L86.9463 105.919C86.5652 106.039 86.1847 106.163 85.8048 106.287C85.1736 106.387 84.4266 106.542 83.5528 106.78C81.8801 107.236 78.3109 108.754 75.1534 110.162C73.3905 110.856 71.6367 111.565 69.8902 112.273ZM69.5274 100.378C69.4548 100.886 69.3908 101.484 69.3347 102.14C69.7969 99.9986 70.4348 97.9149 71.3233 95.9496C70.4037 97.4923 69.7201 99.0266 69.5274 100.378ZM78.153 87.4911C78.861 86.988 79.5976 86.527 80.3587 86.1074C79.3958 86.5727 78.6347 87.0417 78.153 87.4911ZM130.277 104.946C129.482 105.048 128.758 105.13 128.155 105.2C128.165 105.259 128.175 105.317 128.184 105.376C128.772 105.261 129.491 105.116 130.277 104.946ZM139.494 100.398C139.437 100.192 139.328 99.984 139.157 99.7779C139.23 99.8846 139.302 99.9925 139.364 100.107C139.419 100.207 139.457 100.302 139.494 100.398ZM117.109 97.8271C116.182 97.8857 115.255 97.9777 114.329 98.0838C109.865 98.5961 105.423 99.6169 101.108 100.779L103.054 100.482C97.9855 101.79 93.6907 103.171 91.188 104.023C90.8057 104.214 90.4648 104.431 90.2313 104.673C90.727 104.61 91.3362 104.535 92.0473 104.448C95.1883 103.624 98.3654 102.956 101.587 102.515C110.239 101.333 118.569 101.897 126.917 104.317C127.399 104.148 127.984 104.17 128.045 104.529C128.046 104.537 128.047 104.543 128.049 104.551C130.707 104.093 133.465 103.926 136.04 103.154C140.341 101.867 136.069 98.7241 133.836 98.1357C130.417 97.2338 126.728 97.2234 123.084 97.4222C121.06 97.5314 119.05 97.7045 117.109 97.8271ZM249.26 114.254C249.708 113.758 250.159 113.293 250.595 112.865C250.116 113.29 249.67 113.756 249.26 114.254ZM270.067 101.829C271.657 102.369 273.192 103.071 274.642 103.945C273.481 102.936 271.856 102.266 270.067 101.829ZM268.017 159.833C269.006 158.844 270.353 157.227 271.864 155.157C270.61 156.754 269.317 158.321 267.992 159.858C268 159.85 268.008 159.842 268.017 159.833ZM258.249 168.665C258.275 168.638 258.301 168.612 258.328 168.585C258.279 168.593 258.232 168.598 258.187 168.6C258.207 168.623 258.228 168.643 258.249 168.665ZM243.446 106.751C244.643 105.846 245.935 105.02 247.309 104.278C245.963 104.937 244.655 105.749 243.446 106.751ZM271.823 153.237C267.989 158.344 263.737 163.144 259.236 167.675C247.434 153.637 223.593 123.773 243.992 107.367C247.088 104.878 250.693 103.035 254.494 102.027C255.738 101.814 256.91 101.684 257.943 101.614L257.953 101.349C260.935 100.979 263.978 101.136 266.944 101.921C273.626 103.689 279.088 108.678 282.092 114.799C288.678 128.214 279.765 142.658 271.823 153.237ZM275.937 125.977C276.886 118.909 272.538 113.386 266.629 110.818C266.549 110.774 266.492 110.744 266.492 110.744L266.437 110.736C264.591 109.958 262.598 109.463 260.57 109.301C260.566 109.301 260.562 109.301 260.558 109.301C260.514 109.28 260.452 109.263 260.357 109.257C258.709 109.122 257.121 109.241 255.623 109.564L254.6 109.525C254.6 109.525 254.32 109.713 253.856 110.06C249.099 111.726 245.551 115.736 244.611 121.263C243.171 129.724 248.848 136.718 257.11 137.929C265.448 139.15 274.727 134.991 275.937 125.977ZM270.428 133.947C270.914 133.494 271.371 132.993 271.78 132.429C271.871 132.305 271.946 132.172 272.033 132.045C271.525 132.668 270.994 133.289 270.456 133.917C270.447 133.927 270.436 133.936 270.428 133.947ZM147.76 177.405C140.816 171.266 132.257 167.668 123.437 165.067C124.156 165.75 124.785 166.651 125.301 167.286C127.562 170.063 129.619 173.014 131.498 176.061C136.06 183.458 140.11 191.544 141.45 200.212C141.87 200.201 142.29 200.189 142.711 200.179C142.409 197.725 142.131 195.267 141.827 192.813C141.735 192.07 143.509 191.654 143.593 192.341C143.908 194.88 144.194 197.423 144.508 199.963C144.516 200.028 144.506 200.09 144.487 200.15C145.874 200.122 147.26 200.098 148.647 200.08C148.805 199.888 149.054 199.718 149.245 199.672C149.334 199.65 149.424 199.628 149.516 199.625C149.674 199.622 149.803 199.639 149.907 199.672C149.909 199.667 149.91 199.663 149.912 199.659C151.757 200.095 155.8 200.034 158.246 200.184C158.302 200.188 158.358 200.191 158.413 200.194C157.181 196.531 156.302 192.743 155.149 189.053C153.652 184.261 151.624 180.821 147.76 177.405ZM117.297 166.084C116.861 165.324 116.328 164.189 115.629 163.402C115.621 169.521 108.722 170.872 103.393 170.378C100.3 170.091 97.0555 169.473 93.9059 168.498C91.0752 167.805 88.8428 167.053 88.1256 166.541C87.6573 166.207 87.1146 165.813 86.5548 165.403C85.3468 164.729 84.1955 163.981 83.1143 163.163C83.515 164.493 83.7442 165.95 84.0778 167.219C85.109 171.147 86.12 175.08 87.0963 179.021C88.0573 182.897 89.0172 186.779 89.8349 190.688C90.002 191.487 90.6911 193.418 90.7258 194.754C90.7472 194.758 90.7691 194.76 90.7892 194.767C96.0183 196.447 101.763 197.038 107.218 197.386C110.649 197.604 114.126 197.731 117.551 197.363C117.758 197.342 117.973 197.318 118.188 197.294C120.691 196.721 122.771 196.016 124.089 195.52C124.265 195.388 124.443 195.257 124.602 195.102C124.707 195.001 124.866 194.929 125.043 194.883C124.91 187.584 123.366 180.313 120.716 173.516C119.729 170.978 118.654 168.449 117.297 166.084ZM73.9558 202.236C73.8545 206.347 73.7076 210.458 73.5624 214.569L74.8168 201.27C74.6558 201.52 74.4912 201.767 74.3119 202.011C74.2485 202.097 74.1168 202.173 73.9558 202.236ZM34.8921 230.664C35.0433 229.239 35.1824 227.8 35.3141 226.35C34.9769 228.933 34.7683 230.569 34.7683 230.569C34.7683 230.569 34.8134 230.605 34.8921 230.664ZM57.276 171.967C50.1053 175.921 45.7916 181.278 43.2323 189.003C38.7966 202.392 38.1313 216.668 36.6325 230.594C36.841 230.57 37.0246 230.589 37.1294 230.676C46.066 238.083 60.1932 237.145 70.1957 232.224C70.3098 231.836 70.919 231.473 71.4019 231.564C71.4538 219.252 72.2831 206.956 72.3111 194.643C72.3124 194.075 74.0789 193.796 74.0771 194.17C74.0728 196.063 74.0454 197.956 74.0088 199.849C76.3321 195.105 75.9132 189.521 75.9736 184.293C76.0547 177.27 76.5181 170.261 76.5718 163.238C73.6332 164.22 70.7982 165.564 68.0273 166.904C64.4734 168.621 60.7311 170.061 57.276 171.967ZM76.7901 162.283C76.8066 162.27 76.8218 162.257 76.8401 162.245C76.8438 162.067 76.8456 161.967 76.8456 161.967C76.8456 161.967 75.9029 162.387 74.393 163.078C75.1869 162.791 75.9864 162.525 76.7901 162.283Z" fill="#292929"/>
<path d="M104.883 115.979C104.798 116.78 102.996 117.024 103.093 116.114C103.221 114.916 103.195 110.915 101.013 111.282C100.275 111.406 99.7513 112.404 99.5159 113.014C98.9884 114.384 98.9445 115.888 99.0781 117.334C99.1567 118.188 97.3859 118.617 97.3115 117.807C97.0535 115.004 97.5292 110.366 101.17 109.986C104.474 109.643 105.148 113.506 104.883 115.979ZM120.738 116.284C120.651 114.961 120.574 113.489 121.016 112.213C121.078 112.034 121.161 111.863 121.255 111.699C121.258 111.693 121.263 111.688 121.267 111.684C121.298 111.701 121.33 111.719 121.356 111.737C122.013 112.207 122.333 113.168 122.553 113.901C122.975 115.306 123.023 116.795 122.913 118.249C122.843 119.166 124.642 118.914 124.703 118.113C124.833 116.394 124.738 114.622 124.177 112.979C123.827 111.957 123.238 110.87 122.195 110.432C121.163 109.997 120.108 110.638 119.566 111.496C118.705 112.86 118.849 114.899 118.949 116.419C119.009 117.349 120.79 117.067 120.738 116.284ZM97.8554 108.784C99.3549 107.642 101.165 106.987 103.061 107.194C103.872 107.283 104.891 106.126 103.696 105.995C101.207 105.725 98.6835 106.559 96.7059 108.064C95.7498 108.792 97.2041 109.28 97.8554 108.784ZM120.307 107.798C121.459 107.592 122.555 107.886 123.302 108.81C123.798 109.425 125.482 108.731 124.921 108.038C123.691 106.514 121.816 106.284 119.989 106.61C119.643 106.672 119.156 107.035 119.265 107.44C119.384 107.886 119.962 107.859 120.307 107.798ZM117.751 125.245C120.339 123.986 120.228 121.257 118.835 119.056C118.526 118.567 116.807 119.134 117.193 119.744C117.978 120.985 118.831 123.669 117.057 124.532C115.952 125.069 116.971 125.625 117.751 125.245ZM101.965 127.882C103.92 128.541 105.958 128.543 107.996 128.5C108.004 128.481 108.013 128.461 108.021 128.443C108.324 127.771 109.879 127.728 109.767 128.468C109.795 128.468 109.823 128.467 109.851 128.466C110.797 128.46 110.07 128.959 109.483 129.158C108.329 131.671 106.415 135.329 103.384 135.459C100.089 135.602 100.065 130.448 100.044 128.308C100.037 127.611 101.378 127.322 101.743 127.865C101.832 127.859 101.909 127.863 101.965 127.882ZM101.856 128.953C101.929 130.732 102.269 134.665 103.864 134.108C105.643 133.485 106.84 131.068 107.654 129.263C105.71 129.306 103.752 129.346 101.856 128.953ZM324.411 209.35C324.588 209.536 324.475 209.827 324.339 209.991C317.013 218.817 305.916 220.63 295.259 217.556C295.198 217.54 295.149 217.518 295.104 217.497C294.92 217.864 294.728 218.227 294.546 218.595C291.997 223.771 289.323 229.477 287.698 235.348C292.971 226.901 309.214 224.941 315.874 231.913C316.052 232.098 315.938 232.39 315.802 232.554C308.477 241.38 297.38 243.193 286.722 240.119C286.692 240.11 286.671 240.099 286.646 240.089C286.215 242.707 286.053 245.338 286.257 247.953C299.574 241.804 310.528 260.98 303.295 272.457C303.227 272.564 303.076 272.656 302.891 272.728C309.45 272.728 316.01 272.728 322.569 272.728C323.419 272.728 321.76 273.411 321.413 273.411C283.85 273.411 246.288 273.411 208.725 273.411C208.344 273.523 207.925 273.547 207.759 273.411C206.54 273.411 205.323 273.411 204.105 273.411C204.141 273.422 204.18 273.428 204.215 273.442C205.235 273.836 203.824 274.78 203.166 274.526C203.14 274.516 201.23 274.633 200.628 274.669C198.601 274.789 196.575 274.927 194.55 275.069C188.462 275.498 182.376 275.964 176.293 276.456C170.137 276.954 163.98 277.467 157.833 278.066C155.622 278.282 153.411 278.497 151.207 278.771C150.555 278.853 149.902 278.933 149.255 279.039C149.024 279.077 148.881 279.104 148.797 279.119C148.393 279.412 147.695 279.513 147.434 279.2C146.919 279.187 146.414 279.112 146.143 279.094C143.682 278.935 141.222 278.732 138.764 278.532C135.873 278.296 132.983 278.054 130.092 277.83C128.95 277.742 127.809 277.652 126.666 277.582C126.362 277.563 125.021 277.61 125.484 277.485C125.15 277.574 124.904 277.527 124.74 277.421C120.492 278.524 116.014 278.799 111.646 278.785C108.778 278.775 105.905 278.572 103.037 278.618C100.522 278.657 97.9853 279.443 95.5065 279.847C89.0347 280.899 82.4982 281.615 75.9472 281.91C69.7913 282.186 63.4646 282.293 57.3703 281.223C53.0005 280.456 49.532 279.262 46.8549 275.574C38.1818 263.628 38.7623 248.044 38.7708 233.973C38.7708 233.85 38.8294 233.74 38.9233 233.643C37.8775 233.068 36.8756 232.41 35.9255 231.664C35.406 231.827 34.7687 231.806 34.8108 231.422C34.8383 231.171 34.8645 230.917 34.8913 230.664C35.0425 229.238 35.1816 227.799 35.3133 226.35C36.5841 212.429 37.297 197.583 43.1681 184.911C46.4275 177.876 51.8858 173.459 58.8393 170.209C63.8494 167.868 69.0241 165.017 74.391 163.078C75.1862 162.791 75.985 162.525 76.7887 162.282C76.8052 162.269 76.8204 162.256 76.8387 162.244C77.1314 162.045 77.6107 161.933 77.9504 161.945C79.1096 161.632 80.2792 161.381 81.4573 161.194C82.3586 155.644 82.4489 149.942 82.4397 144.332C82.4379 143.359 82.4287 142.387 82.4171 141.413C82.1683 141.46 81.9409 141.456 81.8159 141.362C79.1133 139.318 76.6509 136.955 74.5947 134.298C72.4683 132.067 70.6743 129.612 70.4407 127.514C70.423 127.353 70.4047 127.191 70.3877 127.024C69.8584 125.702 69.4272 124.332 69.1077 122.915C68.601 120.668 68.2973 118.379 68.2979 116.073C68.2979 115.72 68.3759 115.212 68.4253 114.703C68.196 114.664 68.0326 114.55 68.0418 114.332C68.2046 110.35 68.4668 106.148 69.3327 102.139C69.7949 99.998 70.4328 97.9143 71.3213 95.9489C72.2402 93.9165 73.4208 92.0072 74.9666 90.2974C75.9307 89.2314 77.0046 88.3064 78.1522 87.4905C78.8602 86.9874 79.5968 86.5264 80.3579 86.1068C83.9605 84.1207 88.0901 83.0103 92.0928 82.3041C99.175 81.0547 108.64 79.6601 115.42 82.8883C118.182 84.203 121.405 86.4776 123.398 88.8271C125.166 90.9114 125.838 93.8043 126.823 96.2953C126.885 96.449 126.784 96.6014 126.606 96.7283C128.533 96.6752 130.459 96.6978 132.383 96.8953C134.584 97.1216 137.776 97.7631 139.156 99.7766C139.229 99.8833 139.301 99.9913 139.363 100.106C139.417 100.205 139.455 100.3 139.493 100.397C140.637 103.279 134.519 104.4 130.275 104.945C129.481 105.047 128.756 105.129 128.154 105.199C128.164 105.257 128.173 105.316 128.183 105.375C129.225 111.607 130.051 117.943 129.849 124.271C129.67 129.885 129.219 136.253 125.631 140.844C122.636 144.672 118.031 146.439 113.158 147.26C113.428 147.815 113.38 148.693 113.438 149.248C113.611 150.931 113.764 152.617 113.927 154.303C114.152 156.649 114.039 159.589 114.838 161.867C115.164 161.831 115.452 161.897 115.524 162.099C115.719 162.049 115.892 162.026 115.995 162.05C116.019 162.056 116.043 162.062 116.066 162.067C116.202 162.051 116.322 162.056 116.409 162.099C116.456 162.121 116.499 162.157 116.546 162.184C128.073 164.95 140.535 168.573 149.424 176.805C153.001 180.119 155.267 183.306 156.71 187.921C157.989 192.012 158.955 196.22 160.363 200.268C160.367 200.281 160.365 200.295 160.364 200.308C165.452 200.617 170.539 200.919 175.628 201.206C181.67 201.547 187.712 201.88 193.757 202.159C195.785 202.252 197.813 202.346 199.842 202.403C200.476 202.421 201.11 202.441 201.744 202.441C201.987 202.441 202.128 202.438 202.206 202.438C202.663 202.288 203.219 202.325 203.353 202.708C203.355 202.712 203.356 202.716 203.357 202.721C203.383 202.796 203.371 202.885 203.338 202.964C203.682 202.978 203.969 203.127 203.969 203.467C203.969 210.745 203.969 218.022 203.969 225.3C204.256 225.19 204.569 225.137 204.87 225.137C206.293 225.137 207.716 225.137 209.139 225.137C209.489 225.137 209.519 225.366 209.247 225.542C208.885 225.778 208.425 225.877 207.998 225.877C206.655 225.877 205.313 225.877 203.97 225.877C203.97 241.59 203.97 257.303 203.97 273.017C204.308 272.866 204.723 272.729 204.878 272.729C205.777 272.729 206.676 272.729 207.574 272.729C205.33 261.064 217.534 251.99 227.944 256.531C229.503 245.821 244.643 237.77 253.77 244.201C256.478 236.713 264.093 231.947 272.083 232.332C278.346 232.634 282.865 235.942 284.797 240.854C285.226 238.029 285.964 235.214 286.894 232.451C286.817 232.407 286.754 232.348 286.709 232.273C275.594 232.068 267.779 214.898 273.583 205.897C273.914 205.383 274.567 205.221 275.109 205.488C284.121 209.946 288.051 218.808 288.444 228.285C289.884 224.731 291.555 221.299 293.184 218.087C295.151 214.212 297.262 210.399 299.5 206.662C291.335 206.5 284.959 197.184 284.457 188.686C284.485 189.123 284.129 189.398 283.731 189.505C283.461 189.578 282.721 189.591 282.691 189.156C282.672 188.89 282.462 188.73 282.205 188.581C281.914 188.414 281.678 188.334 281.434 188.325C281.066 188.312 280.715 187.983 280.903 187.608C281.11 187.19 281.629 187.06 282.055 187.074C282.577 187.092 283.132 187.306 283.572 187.58C283.953 187.819 284.421 188.191 284.457 188.679C284.278 185.619 284.854 182.667 286.39 180.285C286.721 179.771 287.372 179.609 287.915 179.876C297.16 184.437 301.346 193.482 301.573 203.286C302.49 201.827 303.432 200.383 304.392 198.952C300.957 187.515 317.571 175.73 327.841 179.471C328.043 179.544 328.283 179.741 328.223 179.991C325.614 190.942 317.3 196.002 306.725 197.821C306.722 197.821 306.72 197.821 306.716 197.821C306.536 198.084 306.362 198.35 306.185 198.613C306.225 198.89 306.029 199.122 305.747 199.265C304.297 201.432 302.895 203.632 301.543 205.862C301.543 205.883 301.542 205.902 301.541 205.924C301.531 206.134 301.394 206.306 301.2 206.429C300.645 207.354 300.098 208.284 299.561 209.219C306.507 203.943 318.826 203.503 324.411 209.35ZM305.808 196.859C307.232 194.8 308.695 192.769 310.205 190.776C310.494 190.394 312.236 190.173 311.824 190.716C310.413 192.576 309.045 194.474 307.705 196.395C312.636 195.475 317.836 193.821 321.345 190.078C322.999 188.312 324.362 186.294 325.236 184.027C325.711 182.791 327.24 180.508 325.368 180.212C324.443 180.066 323.514 179.98 322.576 180.074C314.878 180.85 304.661 188.267 305.808 196.859ZM286.679 230.971C286.902 221.252 283.513 211.899 274.746 207.024C270.676 215.214 277.018 230.455 286.679 230.971ZM201.588 203.179C201.5 202.933 201.669 202.711 201.931 202.559C201.703 202.661 201.469 202.844 201.588 203.179ZM123.436 165.067C124.156 165.75 124.785 166.651 125.301 167.285C127.562 170.062 129.619 173.014 131.498 176.06C136.06 183.457 140.11 191.544 141.45 200.211C141.87 200.201 142.29 200.189 142.711 200.178C142.408 197.725 142.131 195.266 141.827 192.813C141.735 192.069 143.509 191.653 143.593 192.34C143.908 194.88 144.193 197.423 144.508 199.962C144.516 200.027 144.506 200.089 144.487 200.149C145.874 200.121 147.26 200.098 148.647 200.079C148.805 199.887 149.054 199.717 149.245 199.671C149.334 199.649 149.424 199.628 149.516 199.625C149.674 199.621 149.803 199.639 149.907 199.671C149.908 199.667 149.91 199.662 149.911 199.659C151.757 200.095 155.8 200.034 158.246 200.183C158.302 200.187 158.358 200.191 158.413 200.194C157.181 196.53 156.302 192.742 155.149 189.053C153.651 184.262 151.623 180.821 147.759 177.405C140.816 171.265 132.257 167.668 123.436 165.067ZM103.393 170.378C100.3 170.091 97.056 169.473 93.9064 168.498C91.3495 167.708 88.8548 166.685 86.5552 165.402C85.3472 164.729 84.1959 163.981 83.1148 163.163C83.5154 164.493 83.7447 165.95 84.0782 167.219C85.1094 171.146 86.1204 175.08 87.0967 179.021C88.0578 182.897 89.0176 186.779 89.8353 190.689C90.0024 191.488 90.6915 193.419 90.7263 194.755C90.7476 194.759 90.7695 194.761 90.7897 194.768C96.0187 196.448 101.763 197.038 107.219 197.387C110.649 197.605 114.126 197.732 117.551 197.364C117.758 197.342 117.974 197.318 118.189 197.295C120.186 197.075 122.469 196.738 124.09 195.521C124.266 195.388 124.444 195.257 124.602 195.103C124.707 195.001 124.866 194.929 125.043 194.883C124.91 187.584 123.367 180.314 120.716 173.517C119.727 170.98 118.653 168.45 117.295 166.085C116.859 165.324 116.327 164.189 115.628 163.402C115.621 169.521 108.722 170.871 103.393 170.378ZM123.084 97.4216C121.06 97.5314 119.05 97.7052 117.109 97.8271C116.182 97.8857 115.255 97.9777 114.329 98.0838C109.865 98.5961 105.423 99.6169 101.107 100.779C101.072 100.788 101.037 100.797 101.001 100.807C98.5176 101.478 96.0303 102.181 93.6234 103.097C93.1423 103.281 92.0605 103.587 91.1879 104.023C90.8055 104.214 90.4646 104.431 90.2311 104.673C90.1274 104.781 90.0421 104.892 89.9872 105.011C90.672 104.817 91.3586 104.629 92.0465 104.448C95.1875 103.624 98.3646 102.956 101.586 102.515C110.239 101.333 118.568 101.897 126.917 104.317C127.398 104.148 127.983 104.17 128.044 104.529C128.045 104.537 128.047 104.543 128.048 104.551C130.706 104.093 133.464 103.926 136.039 103.154C140.341 101.867 136.068 98.7241 133.835 98.1357C130.417 97.2338 126.728 97.2228 123.084 97.4216ZM83.5526 106.781C84.427 106.542 85.1734 106.388 85.8046 106.288C86.1851 106.164 86.565 106.04 86.9461 105.92L86.9455 105.917C86.8833 105.662 87.6931 105.37 88.2383 105.323C88.6773 104.219 90.9586 103.519 91.8214 103.162C92.8288 102.744 93.8588 102.376 94.8961 102.024C95.4589 101.833 96.023 101.645 96.5913 101.469C98.006 101.032 99.4323 100.634 100.855 100.26C107.48 98.5144 114.025 97.3826 120.856 97.0136C122.219 96.9399 123.583 96.8557 124.947 96.7935C124.987 96.7917 125.028 96.7892 125.069 96.7874C125.066 96.7813 125.061 96.777 125.059 96.7709C124.91 96.3953 124.769 95.9959 124.629 95.5892C124.371 94.8361 124.114 94.0494 123.828 93.2707C123.474 92.3066 123.063 91.3706 122.536 90.5455C122.3 90.1772 122.048 89.8229 121.756 89.5113C119.831 87.4496 117.019 85.1586 114.496 83.9585C113.464 83.467 112.372 83.0908 111.245 82.7926C107.929 81.9163 104.277 81.8011 100.698 82.0535C97.8694 82.2535 95.0887 82.6761 92.5611 83.1219C85.996 84.2799 79.0633 86.4264 75.0715 92.1938C71.0511 98.0027 70.234 105.342 69.8907 112.274C71.6371 111.565 73.3909 110.857 75.1538 110.163C78.3108 108.755 81.8799 107.237 83.5526 106.781ZM85.6899 122.224C85.7497 122.262 85.8095 122.298 85.868 122.336C85.8796 122.31 85.8912 122.285 85.9021 122.259C85.8363 122.248 85.7698 122.237 85.6899 122.224ZM82.3885 139.884C82.3879 139.835 82.3861 139.787 82.3848 139.738L82.3787 139.877C82.3818 139.879 82.3854 139.88 82.3885 139.884ZM83.7227 133.342C84.6508 133.121 85.5692 132.661 86.3546 132.207C86.9736 131.85 88.509 132.217 87.473 132.815C86.4711 133.393 85.274 133.983 84.0386 134.32C84.1282 135.069 84.0532 135.933 84.0788 136.577C84.1807 139.105 84.2264 141.636 84.2222 144.167C84.2124 149.801 84.1423 155.515 83.2312 161.089C83.2184 161.165 83.1837 161.236 83.1379 161.302C83.1373 161.305 83.1349 161.309 83.1337 161.313C83.2666 161.326 83.3837 161.363 83.4648 161.433C88.2675 165.571 95.068 167.97 101.245 168.99C106.326 169.828 114.473 170.082 113.817 163.034C113.528 163.014 113.27 162.892 113.166 162.628C112.252 160.315 112.394 157.219 112.161 154.777C112.013 153.23 111.873 151.681 111.714 150.136C111.675 149.752 111.672 148.873 111.585 148.318C111.412 148.226 111.303 148.064 111.324 147.822C111.334 147.711 111.349 147.614 111.377 147.521C107.88 147.951 104.331 147.972 101.211 147.977C100.015 147.979 101.196 146.93 101.886 146.929C109.855 146.916 121.502 146.843 125.537 138.408C128.095 133.06 128.298 126.275 128.05 120.46C127.834 115.44 127.192 110.473 126.362 105.522C118.169 103.074 109.876 102.346 101.38 103.629C97.1529 104.268 93.0167 105.26 88.9426 106.472C90.128 112.132 89.7567 118.056 87.0132 123.224C87.1534 123.351 87.2919 123.481 87.4254 123.616C87.9425 124.137 86.265 124.81 85.7912 124.333C85.6613 124.203 85.5192 124.065 85.368 123.926C85.2027 123.917 85.1003 123.887 85.1289 123.834C85.1436 123.807 85.1564 123.779 85.171 123.751C84.0185 122.743 82.4068 121.788 81.1439 123.001C79.9048 124.189 79.32 125.998 79.1761 127.675C79.0334 129.341 79.2383 131.41 80.5207 132.637C81.0396 133.132 81.6238 133.378 82.2336 133.453C82.605 133.139 83.3849 133.012 83.7227 133.342ZM74.8166 201.27C74.6556 201.52 74.491 201.767 74.3117 202.011C74.2483 202.097 74.1166 202.174 73.9556 202.236C73.8544 206.348 73.7074 210.458 73.5623 214.57C73.3616 220.269 73.175 225.968 73.1622 231.672C73.1616 231.983 72.6293 232.207 72.1494 232.284C72.8671 233.873 72.2475 237.508 72.2067 238.561C72.0048 243.779 71.6957 248.993 71.6579 254.216C75.1343 255.038 78.0455 257.109 81.1713 258.777C83.2355 259.88 85.51 260.798 87.8608 261.533C87.8736 241.99 88.445 222.452 88.467 202.909C88.4401 202.835 88.4444 202.758 88.4682 202.684C88.4682 202.544 88.4694 202.405 88.4694 202.264C88.4694 201.624 90.2366 201.31 90.236 201.792C90.236 201.81 90.236 201.83 90.236 201.849C90.8507 201.741 91.5239 201.768 92.0965 201.741C94.2222 201.639 96.3498 201.566 98.4768 201.494C105.412 201.259 112.348 201.061 119.285 200.867C126.057 200.678 132.833 200.439 139.61 200.261C138.253 192.046 134.491 184.252 130.152 177.218C128.32 174.247 126.382 171.322 124.203 168.591C123.349 167.52 122.029 165.282 120.611 164.837C120.369 164.761 120.669 164.557 121.066 164.395C119.998 164.101 118.928 163.823 117.858 163.55C118.216 164.091 118.52 164.667 118.779 165.117C120.087 167.396 121.214 169.786 122.169 172.235C124.98 179.445 126.734 187.02 126.824 194.779C126.826 194.956 126.57 195.101 126.252 195.201C126.249 195.296 126.192 195.408 126.059 195.538C122.12 199.369 114.536 198.915 109.518 198.718C103.142 198.469 96.376 197.906 90.2293 196.013C89.6725 196.268 88.6481 196.293 88.7828 196.076C89.5067 194.908 88.0407 191.01 87.7773 189.818C86.9272 185.974 85.9948 182.149 85.0387 178.331C84.113 174.635 83.1678 170.944 82.1958 167.26C81.7891 165.718 81.5482 163.88 80.8945 162.405C80.8707 162.381 80.8524 162.356 80.8463 162.323C80.8408 162.308 80.8384 162.291 80.8396 162.274C80.8414 162.22 80.8652 162.166 80.9024 162.114C80.0383 162.269 79.1834 162.464 78.3376 162.698C78.2815 170.435 77.7083 178.159 77.7369 185.898C77.7571 191.198 77.7662 196.713 74.8166 201.27ZM90.7872 202.001C90.8275 202.064 90.8385 202.127 90.8299 202.189C90.8324 202.189 90.8348 202.189 90.8372 202.189C90.8427 202.132 90.8318 202.071 90.7872 202.001ZM70.195 232.224C70.309 231.835 70.9182 231.472 71.4011 231.563C71.453 219.251 72.2823 206.956 72.3104 194.642C72.3116 194.075 74.0782 193.796 74.0769 194.169C74.0727 196.062 74.0452 197.956 74.0086 199.848C76.332 195.104 75.913 189.52 75.9734 184.292C76.0545 177.27 76.518 170.26 76.5716 163.237C73.633 164.219 70.7981 165.563 68.0271 166.904C64.4726 168.621 60.7303 170.062 57.2752 171.968C50.1046 175.922 45.7908 181.28 43.2315 189.004C38.7958 202.393 38.1306 216.669 36.6317 230.595C36.8402 230.571 37.0238 230.591 37.1287 230.678C46.0653 238.081 60.1924 237.145 70.195 232.224ZM133.773 271.615C134.722 270.819 136.668 269.577 137.525 268.334C134.426 267.446 130.679 270.715 127.523 270.901C123.182 271.155 118.928 269.851 114.574 270.03C113.526 270.073 113.686 269.138 114.39 268.864C114.396 268.815 114.407 268.763 114.427 268.706C114.986 267.121 116.269 265.883 117.384 264.675C118.217 263.773 120.578 261.715 119.161 260.46C118.92 260.247 118.913 260.018 119.032 259.82C118.998 259.833 118.969 259.846 118.931 259.858C113.512 261.765 107.534 262.814 101.897 263.829C97.5877 264.605 93.7411 263.704 89.5182 262.851C84.8649 261.909 81.0128 260.276 76.9156 257.909C74.8794 256.732 72.9994 255.826 71.1255 255.329C70.673 255.513 70.0712 255.462 69.9059 255.069C67.2911 254.634 64.6263 255.05 61.5078 256.727C61.0901 256.952 59.4546 257.039 60.487 256.484C63.3201 254.961 66.5941 253.695 69.8724 253.936C69.9163 249.64 70.1358 245.349 70.3194 241.057C70.3578 240.145 70.8889 233.596 70.5938 232.876C61.6761 237.095 49.732 238.635 40.5356 234.461C40.4954 247.369 39.8947 262.316 47.4623 273.419C50.396 277.723 53.3273 279.457 58.4545 280.277C63.8878 281.146 69.4504 281.209 74.9386 280.995C81.3732 280.744 87.8065 280.14 94.1686 279.14C98.3664 278.48 102.241 277.554 106.496 277.682C112.798 277.872 119.443 278.168 125.543 276.289C128.71 275.312 131.249 273.733 133.773 271.615ZM146.79 277.941C147.089 277.958 147.389 277.976 147.688 277.989C147.641 277.919 147.614 277.833 147.614 277.729C147.614 253.729 147.614 229.727 147.614 205.726C147.15 205.71 146.688 205.663 146.287 205.654C144.076 205.603 141.866 205.531 139.656 205.456C135.378 205.311 131.101 205.151 126.824 204.985C126.824 209.259 126.824 213.533 126.824 217.806C127.182 217.959 127.279 218.287 126.598 218.563C126.593 218.565 126.587 218.567 126.582 218.569C126.275 218.756 125.746 218.862 125.398 218.858C123.477 219.098 121.044 218.541 119.368 218.417C117.033 218.245 114.594 218.217 112.264 217.859C111.808 217.96 111.337 217.958 111.337 217.814C111.337 217.747 111.337 217.681 111.337 217.614C111.295 217.554 111.301 217.486 111.337 217.414C111.337 213.279 111.337 209.143 111.337 205.008C111.337 204.639 112.297 204.405 112.801 204.42C107.619 204.204 102.437 203.982 97.2566 203.73C95.1363 203.627 93.016 203.527 90.8982 203.391C90.7354 203.381 90.4951 203.385 90.2299 203.385C90.1909 222.673 89.6359 241.956 89.6262 261.245C89.6262 261.523 89.2944 261.739 88.9182 261.855C91.8086 262.68 94.7906 263.215 97.6462 263.415C101.067 263.653 104.209 262.562 107.527 261.946C111.172 261.27 114.806 260.682 118.315 259.446C118.728 259.301 119.304 259.331 119.425 259.471C119.784 259.277 120.259 259.219 120.525 259.455C123.627 262.202 117.186 266.267 116.156 268.784C121.217 268.909 126.287 270.576 131.155 268.656C133.452 267.75 136.134 266.366 138.625 267.192C139.159 267.053 139.75 267.109 139.628 267.467C139.107 269.005 136.915 270.444 135.748 271.423C133.961 272.922 132.069 274.55 129.945 275.558C129.256 275.885 128.556 276.18 127.846 276.446C128.045 276.469 128.24 276.489 128.423 276.503C130.888 276.681 133.352 276.883 135.815 277.085C138.484 277.302 141.153 277.525 143.823 277.729C144.813 277.804 145.801 277.88 146.79 277.941ZM113.104 204.535C113.104 208.638 113.104 212.741 113.104 216.843C115.194 217.18 117.403 217.197 119.504 217.352C121.027 217.465 122.549 217.578 124.074 217.655C124.402 217.672 124.73 217.683 125.058 217.697C125.058 213.437 125.058 209.176 125.058 204.916C122.82 204.828 120.582 204.743 118.345 204.651C116.512 204.577 114.679 204.499 112.845 204.423C113 204.432 113.104 204.468 113.104 204.535ZM147.805 278.104C147.802 278.102 147.798 278.101 147.796 278.098C147.621 278.168 147.441 278.288 147.364 278.493C147.427 278.324 147.596 278.193 147.805 278.104ZM148.916 204.424C164.494 204.066 180.074 203.775 195.653 203.434C195.524 203.422 195.404 203.415 195.294 203.41C189.114 203.143 182.936 202.806 176.76 202.46C170.372 202.102 163.986 201.73 157.6 201.338C155.134 201.186 152.348 201.341 149.844 200.934C149.783 200.947 149.724 200.956 149.672 200.957C139.916 201.056 130.153 201.453 120.4 201.724C113.613 201.912 106.824 202.104 100.037 202.326C98.6792 202.37 97.3206 202.423 95.9626 202.471C97.2035 202.535 98.4432 202.602 99.6842 202.66C106.318 202.972 112.953 203.252 119.589 203.52C126.195 203.787 132.8 204.044 139.406 204.269C141.652 204.346 143.898 204.423 146.145 204.479C146.82 204.496 147.497 204.515 148.172 204.521C148.274 204.523 148.374 204.515 148.464 204.505C148.494 204.501 148.524 204.497 148.553 204.493C148.663 204.454 148.784 204.427 148.916 204.424ZM169.205 205.138C169.205 209.079 169.205 213.019 169.205 216.96C171.061 216.693 172.983 216.633 174.836 216.454C176.489 216.293 179.385 216.39 181.159 215.96C181.159 212.31 181.159 208.659 181.159 205.008C181.159 204.964 181.175 204.922 181.199 204.882C177.202 204.965 173.203 205.055 169.205 205.138ZM149.063 278.502L149.062 278.507C149.11 278.637 149.091 278.762 149.026 278.875C149.093 278.78 149.124 278.657 149.063 278.502ZM202.191 204.435C195.77 204.582 189.347 204.713 182.927 204.845C182.927 208.439 182.927 212.032 182.927 215.626C183.26 215.773 183.342 216.109 182.7 216.429C182.694 216.432 182.687 216.434 182.681 216.437C182.548 216.517 182.376 216.582 182.193 216.631C180.288 217.329 177.578 217.167 175.694 217.351C173.478 217.567 171.174 217.622 168.96 217.951C168.475 218.234 167.439 218.333 167.439 218.118C167.439 218.058 167.439 217.997 167.439 217.936C167.392 217.879 167.398 217.808 167.439 217.733C167.439 213.593 167.439 209.453 167.439 205.313C167.439 205.263 167.461 205.218 167.491 205.174C161.459 205.298 155.426 205.421 149.394 205.559C149.394 229.557 149.394 253.556 149.394 277.554C149.394 277.728 149.282 277.879 149.115 277.994C151.146 277.508 154.228 277.3 154.543 277.269C161.047 276.586 167.565 276.038 174.083 275.503C180.968 274.939 187.855 274.401 194.746 273.92C197.042 273.759 199.339 273.597 201.637 273.473C201.802 273.463 201.991 273.443 202.19 273.419C202.191 250.425 202.191 227.43 202.191 204.435ZM285.332 249.513C285.02 249.715 284.343 249.744 284.058 249.599C283.962 249.586 283.905 249.561 283.91 249.524C284.902 241.962 281.331 234.654 273.29 233.29C265.022 231.886 257.513 236.92 255.174 244.86C255.147 244.952 255.046 245.034 254.909 245.103C254.98 245.167 255.055 245.222 255.125 245.289C255.575 245.712 253.918 246.378 253.481 245.967C245.001 238.004 230.221 246.818 229.597 257.378C229.672 257.423 229.749 257.461 229.824 257.506C229.964 257.594 229.773 257.771 229.471 257.926C229.096 258.346 227.791 258.545 227.809 257.942V257.939C217.663 252.069 207.023 261.99 209.43 272.727C240.161 272.727 270.893 272.727 301.624 272.727C301.584 272.663 301.586 272.576 301.659 272.461C307.92 262.529 298.476 241.003 285.332 249.513ZM287.999 239.011C293.89 240.669 300.557 241.111 306.232 238.427C307.098 238.016 315.048 233.238 313.653 232.088C312.28 230.955 310.688 230.155 308.956 229.725C301.627 227.909 289.646 230.3 287.999 239.011ZM299.768 205.378C300.056 195.532 296.365 186.301 287.545 181.427C283.45 189.701 289.953 205.151 299.768 205.378ZM322.192 209.525C320.818 208.392 319.226 207.593 317.493 207.163C310.164 205.346 298.183 207.737 296.536 216.448C302.427 218.106 309.094 218.548 314.769 215.864C315.635 215.454 323.586 210.676 322.192 209.525ZM213.204 224.481C212.658 224.481 211.286 225.309 212.471 225.309C214.91 225.309 217.349 225.309 219.788 225.309C220.335 225.309 221.707 224.481 220.522 224.481C218.083 224.481 215.643 224.481 213.204 224.481ZM228.663 224.562C228.244 224.562 227.775 224.688 227.413 224.896C227.126 225.062 227.172 225.229 227.502 225.229C229.535 225.229 231.568 225.229 233.6 225.229C234.018 225.229 234.487 225.103 234.85 224.894C235.136 224.729 235.091 224.562 234.761 224.562C232.727 224.562 230.694 224.562 228.663 224.562ZM241.15 225.38C242.167 225.38 243.183 225.38 244.199 225.38C244.595 225.38 245.122 225.245 245.367 224.904C245.612 224.564 245.162 224.409 244.895 224.409C243.879 224.409 242.864 224.409 241.846 224.409C241.451 224.409 240.923 224.545 240.678 224.885C240.434 225.225 240.884 225.38 241.15 225.38ZM252.153 226.087C253.372 226.087 254.592 226.087 255.811 226.087C256.23 226.087 256.746 225.973 256.968 225.571C257.168 225.209 256.799 224.923 256.455 224.923C255.235 224.923 254.016 224.923 252.796 224.923C252.378 224.923 251.861 225.037 251.639 225.439C251.439 225.8 251.809 226.087 252.153 226.087ZM266.212 224.312C265.793 224.312 265.277 224.427 265.055 224.829C264.855 225.19 265.225 225.477 265.568 225.477C266.788 225.477 268.007 225.477 269.227 225.477C269.645 225.477 270.162 225.362 270.384 224.96C270.584 224.599 270.214 224.312 269.871 224.312C268.651 224.312 267.432 224.312 266.212 224.312ZM219.788 185.673C222.227 185.673 224.667 185.673 227.106 185.673C227.652 185.673 229.024 184.845 227.839 184.845C225.4 184.845 222.961 184.845 220.522 184.845C219.975 184.844 218.603 185.673 219.788 185.673ZM242.167 185.257C242.454 185.092 242.409 184.925 242.078 184.925C240.045 184.925 238.012 184.925 235.98 184.925C235.561 184.925 235.093 185.051 234.731 185.26C234.443 185.425 234.489 185.592 234.82 185.592C236.852 185.592 238.885 185.592 240.918 185.592C241.337 185.591 241.805 185.465 242.167 185.257ZM252.213 184.773C251.196 184.773 250.18 184.773 249.164 184.773C248.768 184.773 248.24 184.908 247.996 185.249C247.751 185.589 248.201 185.744 248.467 185.744C249.484 185.744 250.499 185.744 251.516 185.744C251.911 185.744 252.439 185.608 252.684 185.268C252.928 184.927 252.479 184.773 252.213 184.773ZM260.114 185.285C259.695 185.285 259.179 185.4 258.957 185.802C258.757 186.163 259.127 186.45 259.47 186.45C260.69 186.45 261.909 186.45 263.129 186.45C263.547 186.45 264.064 186.335 264.286 185.934C264.486 185.572 264.116 185.285 263.773 185.285C262.553 185.285 261.334 185.285 260.114 185.285ZM273.53 184.675C273.111 184.675 272.595 184.79 272.372 185.192C272.172 185.554 272.542 185.84 272.886 185.84C274.105 185.84 275.325 185.84 276.545 185.84C276.963 185.84 277.479 185.726 277.702 185.324C277.902 184.962 277.532 184.675 277.189 184.675C275.969 184.675 274.749 184.675 273.53 184.675ZM288.106 221.115C287.835 221.119 287.391 220.953 287.633 220.614C287.756 220.44 287.95 220.322 288.164 220.247C288.17 220.208 288.178 220.171 288.18 220.131C288.197 219.763 288.925 219.575 289.186 219.541C289.47 219.504 289.963 219.514 289.945 219.902C289.905 220.754 288.82 221.104 288.106 221.115ZM288.551 220.16C288.636 220.149 288.72 220.139 288.799 220.138C288.74 220.139 288.517 220.167 288.657 220.144C288.618 220.15 288.583 220.155 288.551 220.16ZM208.905 180.007C209.505 181.666 211.049 183.085 212.866 183.15C213.276 183.165 213.762 183.017 214.116 182.816C214.412 182.646 214.348 182.5 214.027 182.488C212.483 182.432 211.155 180.866 210.671 179.534C210.539 179.166 208.799 179.714 208.905 180.007ZM207.623 174.046C207.1 172.919 207.023 171.769 207.021 170.543C207.021 169.667 205.237 169.978 205.238 170.704C205.24 172.025 205.29 173.302 205.856 174.519C206.195 175.246 207.937 174.719 207.623 174.046ZM207.632 163.838C207.701 162.036 208.687 160.532 209.911 159.271C210.676 158.483 208.962 158.271 208.447 158.803C207.079 160.212 205.925 161.978 205.848 163.993C205.813 164.876 207.603 164.586 207.632 163.838ZM214.562 155.766C214.951 155.908 215.459 155.755 215.807 155.574C216.897 155.002 217.9 154.025 219.183 153.983C219.575 153.97 220.093 153.844 220.358 153.529C220.624 153.211 220.132 153.109 219.908 153.116C217.862 153.183 216.478 154.278 214.748 155.185C214.547 155.288 214.176 155.625 214.562 155.766ZM227.749 151.649C228.561 151.649 229.375 151.649 230.188 151.649C230.596 151.649 231.118 151.526 231.351 151.151C231.569 150.798 231.166 150.571 230.855 150.571C230.042 150.571 229.228 150.571 228.416 150.571C228.008 150.571 227.486 150.694 227.253 151.068C227.035 151.422 227.438 151.649 227.749 151.649ZM239.958 151.697C240.377 151.697 240.893 151.582 241.115 151.178C241.312 150.815 240.946 150.522 240.599 150.522C239.379 150.522 238.16 150.522 236.94 150.522C236.52 150.522 236.005 150.637 235.784 151.04C235.586 151.403 235.953 151.697 236.299 151.697C237.519 151.697 238.738 151.697 239.958 151.697ZM234.515 125.779C233.994 117.622 237.567 111.204 243.446 106.751C244.643 105.846 245.935 105.02 247.308 104.278C248.327 103.728 249.387 103.221 250.488 102.764C256.834 100.128 263.881 99.7327 270.066 101.829C271.657 102.369 273.191 103.071 274.641 103.945C277.454 105.64 279.953 107.972 281.939 110.976C289.991 123.151 284.693 136.677 277.304 147.695C275.589 150.252 273.765 152.737 271.863 155.157C270.608 156.754 269.315 158.321 267.99 159.858C265.341 162.932 262.566 165.897 259.681 168.746C259.362 169.062 257.659 169.249 258.071 168.841C258.13 168.782 258.188 168.723 258.248 168.664C258.274 168.638 258.3 168.611 258.327 168.585C258.278 168.592 258.232 168.598 258.185 168.599C257.985 168.613 257.819 168.586 257.741 168.493C252.317 162.048 247.108 155.333 242.809 148.072C238.824 141.339 235.024 133.729 234.515 125.779ZM259.235 167.675C263.736 163.144 267.988 158.344 271.822 153.237C279.764 142.657 288.678 128.214 282.092 114.799C279.086 108.678 273.625 103.69 266.943 101.921C263.978 101.136 260.934 100.978 257.952 101.349C256.786 101.494 255.632 101.725 254.493 102.027C250.692 103.034 247.086 104.877 243.991 107.367C223.592 123.773 247.435 153.636 259.235 167.675ZM257.111 137.928C248.85 136.717 243.172 129.723 244.612 121.263C245.552 115.736 249.101 111.725 253.858 110.059C254.43 109.858 255.019 109.694 255.624 109.564C257.122 109.24 258.709 109.12 260.357 109.256C260.452 109.264 260.514 109.28 260.558 109.3C260.562 109.3 260.566 109.3 260.57 109.3C262.598 109.463 264.591 109.957 266.437 110.735C266.501 110.762 266.565 110.788 266.629 110.816C272.537 113.385 276.885 118.908 275.937 125.975C274.727 134.991 265.447 139.15 257.111 137.928ZM258.876 137.224C262.992 137.549 267.39 136.778 270.428 133.947C270.915 133.493 271.37 132.992 271.781 132.428C271.87 132.304 271.946 132.171 272.032 132.045C273.818 129.397 274.619 126.117 274.154 122.942C272.957 114.773 265.92 110.154 258.007 110.03C257.899 110.029 257.83 110.016 257.789 109.995C254.971 110.09 252.515 111.162 250.596 112.864C250.117 113.289 249.67 113.755 249.26 114.253C247.193 116.771 246.049 120.152 246.185 123.704C246.46 130.909 251.544 136.645 258.876 137.224Z" fill="black"/>
</svg>
