<?xml version="1.0" encoding="utf-8"?>
<!-- Generator: Adobe Illustrator 24.3.0, SVG Export Plug-In . SVG Version: 6.00 Build 0)  -->
<svg version="1.1" id="Layer_1" xmlns="http://www.w3.org/2000/svg" xmlns:xlink="http://www.w3.org/1999/xlink" x="0px" y="0px"
	 viewBox="0 0 1024 768" style="enable-background:new 0 0 1024 768;" xml:space="preserve">
<style type="text/css">
	.st0{fill:#BC1818;}
	.st1{fill:#FF2222;}
	.st2{fill:#EDEDED;}
	.st3{fill:#FFFFFF;}
</style>
<g>
	<path d="M315.9,147.2H328v92.8h-12.1V147.2z"/>
	<path d="M421.6,147v92.9h-12.1l-48.7-73.9v73.9h-12.1V147h12.1l48.7,73.7V147H421.6z"/>
	<path d="M442.2,147.2h52.4v9.8h-40.3v31.3h32.7v9.8h-32.7v41.8h-12.1V147.2z"/>
	<path d="M551.4,240.9c-26.1,0-46.6-19.6-46.6-47.4c0-27.8,20.5-47.4,46.6-47.4c26.2,0,46.6,19.6,46.6,47.4
		C598,221.3,577.6,240.9,551.4,240.9z M551.4,230.3c19.6,0,34.2-14.2,34.2-36.9c0-22.8-14.6-36.9-34.2-36.9
		c-19.6,0-34.2,14.1-34.2,36.9C517.2,216.1,531.8,230.3,551.4,230.3z"/>
	<path d="M655.7,146c20.1,0,36.1,10.1,43,28.1h-14.5c-5.1-11.2-14.9-17.4-28.5-17.4c-19.4,0-33.9,14.1-33.9,36.9
		c0,22.6,14.5,36.7,33.9,36.7c13.6,0,23.4-6.3,28.5-17.3h14.5c-6.9,17.8-22.9,27.8-43,27.8c-26,0-46.3-19.4-46.3-47.2
		C609.4,165.7,629.8,146,655.7,146z"/>
	<path d="M728.8,147.2v82.9h32.5v9.8h-44.6v-92.8H728.8z"/>
	<path d="M774.2,147.2h12.1v92.8h-12.1V147.2z"/>
	<path d="M873.6,234.2l23.4,23.3h-15.7L862.8,239c-4.4,1.2-9.1,1.9-13.8,1.9c-26.1,0-46.6-19.6-46.6-47.4
		c0-27.8,20.5-47.4,46.6-47.4c26.2,0,46.6,19.6,46.6,47.4C895.5,211.6,886.9,226.2,873.6,234.2z M849,230.3
		c19.6,0,34.2-14.2,34.2-36.9c0-22.8-14.6-36.9-34.2-36.9c-19.6,0-34.2,14.1-34.2,36.9C814.7,216.1,829.4,230.3,849,230.3z"/>
</g>
<g>
	<path class="st0" d="M256,193"/>
	<circle class="st1" cx="210.3" cy="193" r="63.4"/>
	<g>
		<polygon class="st2" points="166.8,161.4 253.6,160.1 245.8,177.2 176.3,179.7 		"/>
		<polygon class="st2" points="230.6,207.4 184.7,197.2 192.4,213.2 223.9,220.6 		"/>
		<polygon class="st3" points="197.1,222.2 226.7,215 216.6,235.1 204.5,237.8 		"/>
		<polygon class="st3" points="236.9,194.8 188.8,205.8 181.5,190.4 246.7,175.2 		"/>
	</g>
</g>
</svg>
